<?xml version="1.0" encoding="utf-8"?>
<!-- Generator: Adobe Illustrator 16.0.0, SVG Export Plug-In . SVG Version: 6.00 Build 0)  -->
<!DOCTYPE svg PUBLIC "-//W3C//DTD SVG 1.1//EN" "http://www.w3.org/Graphics/SVG/1.1/DTD/svg11.dtd">
<svg version="1.1" id="Layer_1" xmlns="http://www.w3.org/2000/svg" xmlns:xlink="http://www.w3.org/1999/xlink" x="0px" y="0px"
	 width="1072px" height="1416px" viewBox="0 0 1072 1416" enable-background="new 0 0 1072 1416" xml:space="preserve">
<path fill="#B3B3B3" d="M1028.528,262.773c-20.985-49.611-51.021-94.163-89.277-132.418
	c-38.256-38.256-82.809-68.293-132.419-89.276c-34.921-14.771-71.314-24.584-108.706-29.359l-0.941-0.94l-0.731,0.732
	c-12.224-1.51-24.55-2.493-36.968-2.923V8.065H204.129v5.721L16.449,201.467h-5.721v1206.468h337.914v-5.851l187.551-187.551h5.851
	v-189.487c24.353-5.414,48.196-13.033,71.388-22.843c49.611-20.984,94.163-51.021,132.418-89.275
	c33.184-33.184,60.172-71.11,80.443-112.961c41.85-20.271,79.775-47.259,112.959-80.44c38.256-38.256,68.292-82.809,89.277-132.419
	c21.727-51.371,32.744-105.932,32.744-162.167S1050.255,314.144,1028.528,262.773z M629.845,37.705v0.268h14.82
	c8.229,0,16.42,0.255,24.566,0.761L503.537,204.427l0.614,0.615c-12.583-1.589-25.278-2.608-38.068-3.052v-0.523H233.769V37.705
	H629.845z M807.827,768.962c-1.239,2.928-2.513,5.835-3.818,8.724c-2.889,1.307-5.795,2.58-8.723,3.818
	c-47.698,20.174-98.374,30.403-150.621,30.403H512.403v6.262l-187.139,187.14h-6.262v179.585h-85.232V231.106h202.674v0.268h14.82
	c52.247,0,102.923,10.229,150.621,30.404c46.077,19.489,87.463,47.393,123.006,82.936c35.543,35.543,63.447,76.929,82.937,123.007
	c20.175,47.697,30.404,98.374,30.404,150.621C838.231,670.588,828.002,721.264,807.827,768.962z M512.403,1000.522
	c-20.077,3.181-40.484,4.786-61.139,4.786H367.18l145.223-145.223V1000.522z M204.129,1196.423L40.368,1360.185V231.106h163.761
	V1196.423z M204.129,55.703v145.764H58.365L204.129,55.703z M64.174,1378.294l163.761-163.761h91.066v163.761H64.174z
	 M348.642,1360.167v-145.634h145.634L348.642,1360.167z M512.403,1184.894H348.642v-149.945h102.622
	c20.63,0,41.034-1.488,61.139-4.439V1184.894z M724.891,891.968c-35.543,35.543-76.929,63.447-123.006,82.937
	c-19.482,8.24-39.462,14.82-59.842,19.723v-153.08h102.622c47.537,0,93.879-7.874,138.109-23.435
	C766.64,844.856,747.284,869.574,724.891,891.968z M1001.229,575.561c-19.489,46.078-47.394,87.463-82.937,123.007
	c-22.395,22.395-47.111,41.748-73.857,57.883c15.562-44.229,23.437-90.571,23.437-138.109c0-56.235-11.018-110.796-32.745-162.167
	c-20.984-49.611-51.021-94.163-89.277-132.418c-38.255-38.256-82.807-68.293-132.418-89.276
	c-24.184-10.229-49.078-18.063-74.516-23.513l168.029-168.03c30.311,4.894,59.857,13.392,88.342,25.44
	c46.077,19.489,87.463,47.393,123.006,82.936c35.543,35.543,63.447,76.929,82.937,123.007
	c20.175,47.697,30.403,98.374,30.403,150.621C1031.632,477.187,1021.403,527.863,1001.229,575.561z"/>
</svg>
