<?xml version="1.0" standalone="no"?>
<!DOCTYPE svg PUBLIC "-//W3C//DTD SVG 20010904//EN"
 "http://www.w3.org/TR/2001/REC-SVG-20010904/DTD/svg10.dtd">
<svg version="1.0" xmlns="http://www.w3.org/2000/svg"
 width="1400.000000pt" height="1400.000000pt" viewBox="0 0 1400.000000 1400.000000"
 preserveAspectRatio="xMidYMid meet">
<metadata>
Created by potrace 1.11, written by Peter Selinger 2001-2013
</metadata>
<g transform="translate(0.000000,1400.000000) scale(0.100000,-0.100000)"
fill="#000000" stroke="none">
<path d="M3685 13963 c2 -25 -99 -129 -937 -965 -818 -817 -943 -938 -969
-938 l-29 0 0 -6030 0 -6030 1690 0 1690 0 0 28 c0 23 148 175 938 964 776
776 942 937 967 940 l30 3 1 935 c1 514 2 940 3 946 0 7 34 19 75 28 153 34
505 151 646 214 411 183 741 386 1050 646 114 96 95 80 215 196 133 129 273
283 398 440 39 49 202 283 234 335 92 151 213 371 213 386 0 4 56 37 124 72
705 371 1291 935 1686 1622 76 132 203 393 255 525 107 271 206 631 241 870 4
30 8 57 9 60 1 3 5 32 9 65 4 33 9 74 12 90 19 132 26 594 12 791 -9 115 -34
311 -53 404 -2 13 -7 41 -10 63 -23 155 -143 555 -225 752 -23 55 -49 118 -57
140 -27 65 -131 270 -190 374 -124 216 -314 483 -459 648 -33 36 -67 75 -77
87 -67 77 -242 247 -367 357 -550 483 -1341 850 -2055 954 -22 3 -65 10 -95
15 -30 5 -86 12 -125 15 -38 3 -90 9 -115 12 -25 4 -1101 8 -2392 10 l-2346 4
3 -28z m4426 -273 c107 -1 200 -5 207 -8 6 -5 -319 -337 -818 -836 -456 -455
-833 -826 -837 -823 -4 3 -46 8 -93 12 -47 3 -101 9 -120 12 -19 3 -577 7
-1240 8 -663 2 -1210 4 -1216 4 -9 1 -12 211 -12 815 l0 815 22 3 c22 3 3764
2 4107 -2z m694 -64 c6 -2 28 -6 50 -10 139 -27 484 -123 560 -157 11 -4 45
-18 75 -29 30 -11 64 -25 75 -30 11 -5 45 -19 75 -31 80 -33 365 -179 440
-227 36 -23 79 -49 95 -58 27 -15 244 -167 284 -200 203 -163 443 -390 551
-521 30 -36 62 -74 71 -82 35 -35 151 -193 229 -311 45 -69 91 -137 101 -152
11 -15 19 -29 19 -31 0 -2 26 -50 58 -108 246 -446 399 -938 457 -1474 9 -90
17 -258 17 -395 0 -442 -81 -899 -233 -1312 -286 -779 -828 -1462 -1509 -1903
-58 -37 -111 -72 -117 -78 -9 -7 -8 3 3 34 58 165 151 544 169 694 4 28 8 57
10 65 2 8 7 47 11 85 3 39 8 79 10 90 22 118 21 741 -1 825 -2 8 -7 46 -10 85
-4 38 -8 72 -10 75 -2 3 -6 34 -10 70 -3 35 -8 67 -10 70 -2 3 -6 22 -9 42
-13 81 -50 239 -86 368 -337 1189 -1176 2161 -2305 2670 -148 67 -442 176
-525 195 -8 2 -69 18 -135 36 -123 32 -143 37 -160 38 -5 1 368 379 830 841
l840 840 40 -6 c22 -3 45 -7 50 -8z m-5120 -846 c0 -713 0 -720 -20 -721 -36
0 -1389 -1 -1412 0 -17 1 151 174 695 720 394 395 722 719 727 720 7 1 10
-245 10 -719z m0 -5845 l0 -4820 -809 -808 c-445 -444 -815 -812 -820 -816 -8
-7 -10 1641 -9 5607 1 3090 2 5627 2 5640 l1 22 817 -2 817 -3 1 -4820z m2790
4812 c22 -3 69 -9 105 -12 36 -3 90 -10 120 -15 30 -6 69 -12 85 -14 222 -30
536 -117 805 -223 106 -42 362 -163 455 -215 153 -86 235 -139 385 -248 113
-82 117 -85 224 -175 108 -90 268 -244 356 -341 50 -54 200 -234 227 -270 12
-16 36 -49 55 -74 54 -72 160 -236 222 -344 227 -393 389 -845 461 -1286 7
-47 16 -107 20 -135 3 -27 8 -61 10 -75 25 -169 26 -713 1 -846 -2 -10 -7 -46
-10 -79 -10 -87 -15 -119 -37 -230 -11 -55 -22 -111 -25 -125 -28 -145 -127
-456 -201 -629 l-48 -114 -145 -59 c-239 -98 -531 -181 -780 -223 -52 -9 -105
-18 -118 -20 -13 -2 -53 -7 -90 -10 -37 -4 -78 -8 -91 -10 -77 -13 -365 -18
-986 -19 l-700 -1 -3 -31 c-3 -25 -151 -178 -938 -964 -834 -833 -938 -934
-967 -935 l-32 -2 -2 -879 c-1 -483 -2 -887 -2 -896 -1 -17 -28 -18 -425 -18
l-424 0 0 4766 0 4766 1227 -5 c674 -2 1244 -7 1266 -10z m2989 -5869 c-65
-110 -249 -363 -358 -493 -53 -63 -333 -346 -401 -406 -61 -53 -182 -149 -265
-210 -75 -56 -258 -179 -266 -179 -2 0 -34 -19 -71 -42 -174 -106 -504 -255
-738 -331 -104 -34 -294 -88 -296 -84 -1 1 -2 343 -3 761 -1 502 2 760 9 762
5 2 307 5 670 7 363 2 676 7 695 10 19 3 67 8 106 12 39 3 80 7 90 9 11 2 40
7 66 10 178 24 448 86 643 149 129 41 128 41 119 25z m-2694 -1107 l0 -699
-82 -11 c-85 -11 -137 -17 -243 -27 -94 -10 -1116 -11 -1112 -1 2 7 1429 1437
1435 1437 1 0 2 -315 2 -699z m0 -1771 l0 -770 -820 0 -820 0 0 749 0 748 603
1 c542 0 696 3 807 17 19 2 64 7 100 11 36 3 66 7 67 8 1 1 16 3 33 4 l30 2 0
-770z m-2000 -1070 l65 0 -1 -808 c0 -445 -3 -813 -6 -818 -5 -7 -2514 -12
-2536 -5 -2 1 362 366 810 813 581 579 821 813 841 817 15 3 193 5 395 4 202
-1 396 -2 432 -3z m1805 -2 c2 -2 -322 -330 -720 -728 l-725 -724 0 726 0 727
23 3 c30 4 1418 0 1422 -4z"/>
</g>
</svg>
